<svg xmlns="http://www.w3.org/2000/svg" xmlns:xlink="http://www.w3.org/1999/xlink" width="447" height="208.477" viewBox="0 0 447 208.47653"><defs><linearGradient id="c" x1="304.561" x2="0" y1=".241" y2="304.802" gradientTransform="matrix(1.4677 0 0 1.43067 0 .46)" gradientUnits="userSpaceOnUse"><stop stop-color="#2CDD97" offset="0%"/><stop stop-color="#1DC5CE" offset="100%"/></linearGradient><linearGradient id="a" x1=".5" x2=".5" y2="1"><stop stop-color="#FFF" stop-opacity="0" offset="0%"/><stop stop-color="#FFF" offset="100%"/></linearGradient><linearGradient xlink:href="#a" id="d" x1="140.984" y1=".261" x2="140.984" y2="282.229" gradientTransform="scale(1.58528 .6308)" gradientUnits="userSpaceOnUse"/><linearGradient xlink:href="#a" id="e" x1="128.7" y1=".286" x2="128.7" y2="257.687" gradientTransform="scale(1.7366 .57584)" gradientUnits="userSpaceOnUse"/><linearGradient xlink:href="#a" id="f" x1="85.275" y1=".316" x2="85.275" y2="170.865" gradientTransform="scale(1.91773 .52145)" gradientUnits="userSpaceOnUse"/><clipPath id="b"><rect width="476.303" height="214.112" x="-.641" y="1.581" ry="0" fill="#00f" fill-rule="evenodd" stroke="#000"/></clipPath></defs><g fill-rule="evenodd"><path transform="matrix(1 0 0 .96707 0 -.112)" clip-path="url(#b)" d="M274.202 312.038c-3.315 0-6.002 5.634-6.002 12.597v37.053c0 6.957-2.685 12.597-5.993 12.597H154.993c-3.31 0-5.993 5.634-5.993 12.596v37.055c0 6.957-2.68 12.597-6.002 12.597H0V.806h447v248.986h-23.805c-3.31 0-5.995 5.634-5.995 12.596v37.054c0 6.957-2.68 12.596-6.002 12.596H274.202z" fill="url(#c)"/><path d="M0 148.386h23.805c3.31 0 5.995 2.683 5.995 6v17.646c0 3.313 2.684 6 5.995 6h17.81c3.31 0 5.995-2.683 5.995-6V124.74c0-3.313 2.684-5.998 5.995-5.998h17.81c3.31 0 5.995 2.683 5.995 6v17.645c0 3.314 2.684 6 5.995 6h17.81c3.31 0 5.995 2.682 5.995 5.998v17.647c0 3.313 2.684 6 5.995 6h17.81c3.31 0 5.995-2.684 5.995-6v-17.647c0-3.313 2.684-6 5.995-6h17.81c3.31 0 5.995-2.682 5.995-5.998V124.74c0-3.312 2.684-5.998 5.995-5.998h17.81c3.31 0 5.995 2.683 5.995 6v17.645c0 3.314 2.684 6 5.995 6h17.81c3.31 0 5.995-2.684 5.995-6V124.74c0-3.312 2.684-5.998 5.995-5.998h17.81c3.31 0 5.995-2.683 5.995-6V95.098c0-3.313 2.684-6 5.995-6h17.81c3.31 0 5.995 2.683 5.995 5.998v47.294c0 3.31 2.684 5.996 5.995 5.996h17.81c3.31 0 5.995-2.683 5.995-6v-17.645c0-3.312 2.684-5.998 5.995-5.998h17.81c3.31 0 5.995 2.683 5.995 6v17.645c0 3.314 2.684 6 5.995 6h17.81c3.31 0 5.995-2.683 5.995-5.998V95.094c0-3.312 2.684-5.997 5.995-5.997h17.81c3.31 0 5.995 2.683 5.995 6v17.645c0 3.313 2.684 6 5.995 6H447V.164H0v148.22z" opacity=".25" fill="url(#d)" transform="translate(0 -.165)"/><path d="M0 148.386h23.805c3.31 0 5.995-2.683 5.995-6v-17.645c0-3.312 2.677-5.998 6-5.998h47.6c3.313 0 6 2.683 6 6v17.645c0 3.314 2.684 6 5.995 6h17.81c3.31 0 5.995-2.684 5.995-6V124.74c0-3.312 2.684-5.998 5.995-5.998h17.81c3.31 0 5.995-2.683 5.995-6V95.098c0-3.313 2.677-6 6-6h47.6c3.313 0 6-2.682 6-5.998V65.45c0-3.313 2.684-6 5.995-6h17.81c3.31 0 5.995 2.684 5.995 6V83.1c0 3.312 2.684 5.998 5.995 5.998h17.81c3.31 0 5.995-2.683 5.995-6V65.453c0-3.313 2.684-6 5.995-6h17.81c3.31 0 5.995 2.684 5.995 6V83.1c0 3.312 2.684 5.998 5.995 5.998h17.81c3.31 0 5.995-2.683 5.995-6V65.453c0-3.313 2.684-6 5.995-6h17.81c3.31 0 5.995-2.682 5.995-5.998V35.808c0-3.313 2.684-6 5.995-6h17.81c3.31 0 5.995 2.684 5.995 6v17.646c0 3.313 2.684 6 5.995 6h17.81c3.31 0 5.995-2.684 5.995-6V35.808c0-3.313 2.684-6 5.995-6H447V.166H0v148.22z" opacity=".4" fill="url(#e)" transform="translate(0 -.165)"/><path d="M0 .165v59.288h23.734c3.314 0 6-2.683 6-6V35.81c0-3.313 2.69-6 6-6h17.734c3.313 0 6 2.684 6 6v17.646c0 3.313 2.69 6 5.998 6H83.2c3.315 0 6 2.682 6 5.998V83.1c0 3.312 2.692 5.998 6 5.998h17.735c3.313 0 6-2.682 6-5.998V35.806c0-3.312 2.69-5.997 5.998-5.997h17.735c3.314 0 6 2.682 6 5.998v17.646c0 3.313 2.69 6 6 6H172.4c3.313 0 6-2.684 6-6V35.808c0-3.313 2.69-6 5.998-6h17.735c3.313 0 6-2.682 6-5.998V.165H0zm267.6 0v53.29c0 3.313 2.692 5.998 6 5.998h17.736c3.313 0 6-2.683 6-6V35.81c0-3.313 2.69-6 5.998-6h17.735c3.312 0 5.998-2.682 5.998-5.998V.165H267.6z" opacity=".4" fill="url(#f)" transform="translate(0 -.165)"/></g></svg>