<svg xmlns="http://www.w3.org/2000/svg" width="447" height="208" viewBox="0 0 447 208">
  <defs>
    <linearGradient id="a" x1="100%" x2="0%" y1="0%" y2="100%">
      <stop stop-color="#2CDD97" offset="0%"></stop>
      <stop stop-color="#1DC5CE" offset="100%"></stop>
    </linearGradient>
    <linearGradient id="b" x1="50%" x2="50%" y1="0%" y2="100%">
      <stop stop-color="#FFFFFF" stop-opacity="0" offset="0%"></stop>
      <stop stop-color="#FFFFFF" offset="100%"></stop>
    </linearGradient>
  </defs>

  <g fill="none" fill-rule="evenodd">
    <path fill="url(#a)" d="M274.20231,148.386447 C270.887326,148.386447 268.2,151.069473 268.2,154.38543 L268.2,172.031848 C268.2,175.344995 265.514865,178.030831 262.207164,178.030831 L154.992836,178.030831 C151.683084,178.030831 149,180.713857 149,184.029815 L149,201.676232 C149,204.989379 146.3187,207.675215 142.99769,207.675215 L0,207.675215 L0,0.164526332 L447,0.164526332 L447,118.742063 L423.194628,118.742063 C419.883886,118.742063 417.2,121.425088 417.2,124.741046 L417.2,142.387463 C417.2,145.700611 414.5187,148.386447 411.19769,148.386447 L274.20231,148.386447 Z"></path>
    <path fill="url(#b)" d="M0,148.386447 L23.8053725,148.386447 C27.1161138,148.386447 29.8,151.069473 29.8,154.38543 L29.8,172.031848 C29.8,175.344995 32.4839299,178.030831 35.7946275,178.030831 L53.6053725,178.030831 C56.9161138,178.030831 59.6,175.348726 59.6,172.033378 L59.6,124.739516 C59.6,121.427214 62.2839299,118.742063 65.5946275,118.742063 L83.4053725,118.742063 C86.7161138,118.742063 89.4,121.425088 89.4,124.741046 L89.4,142.387463 C89.4,145.700611 92.0839299,148.386447 95.3946275,148.386447 L113.205372,148.386447 C116.516114,148.386447 119.2,151.069473 119.2,154.38543 L119.2,172.031848 C119.2,175.344995 121.88393,178.030831 125.194628,178.030831 L143.005372,178.030831 C146.316114,178.030831 149,175.347805 149,172.031848 L149,154.38543 C149,151.072283 151.68393,148.386447 154.994628,148.386447 L172.805372,148.386447 C176.116114,148.386447 178.8,145.703421 178.8,142.387463 L178.8,124.741046 C178.8,121.427899 181.48393,118.742063 184.794628,118.742063 L202.605372,118.742063 C205.916114,118.742063 208.6,121.425088 208.6,124.741046 L208.6,142.387463 C208.6,145.700611 211.28393,148.386447 214.594628,148.386447 L232.405372,148.386447 C235.716114,148.386447 238.4,145.703421 238.4,142.387463 L238.4,124.741046 C238.4,121.427899 241.08393,118.742063 244.394628,118.742063 L262.205372,118.742063 C265.516114,118.742063 268.2,116.059037 268.2,112.743079 L268.2,95.0966622 C268.2,91.7835151 270.88393,89.0976787 274.194628,89.0976787 L292.005372,89.0976787 C295.316114,89.0976787 298,91.7797839 298,95.0951317 L298,142.388994 C298,145.701296 300.68393,148.386447 303.994628,148.386447 L321.805372,148.386447 C325.116114,148.386447 327.8,145.703421 327.8,142.387463 L327.8,124.741046 C327.8,121.427899 330.48393,118.742063 333.794628,118.742063 L351.605372,118.742063 C354.916114,118.742063 357.6,121.425088 357.6,124.741046 L357.6,142.387463 C357.6,145.700611 360.28393,148.386447 363.594628,148.386447 L381.405372,148.386447 C384.716114,148.386447 387.4,145.704342 387.4,142.388994 L387.4,95.0951317 C387.4,91.7828299 390.08393,89.0976787 393.394628,89.0976787 L411.205372,89.0976787 C414.516114,89.0976787 417.2,91.7807043 417.2,95.0966622 L417.2,112.743079 C417.2,116.056226 419.88393,118.742063 423.194628,118.742063 L447,118.742063 L447,0.164526332 L0,0.164526332 L0,148.386447 Z" opacity=".25"></path>
    <path fill="url(#b)" d="M0,148.386447 L23.8053725,148.386447 C27.1161138,148.386447 29.8,145.703421 29.8,142.387463 L29.8,124.741046 C29.8,121.427899 32.4766729,118.742063 35.8013381,118.742063 L83.3986619,118.742063 C86.7131094,118.742063 89.4,121.425088 89.4,124.741046 L89.4,142.387463 C89.4,145.700611 92.0839299,148.386447 95.3946275,148.386447 L113.205372,148.386447 C116.516114,148.386447 119.2,145.703421 119.2,142.387463 L119.2,124.741046 C119.2,121.427899 121.88393,118.742063 125.194628,118.742063 L143.005372,118.742063 C146.316114,118.742063 149,116.059037 149,112.743079 L149,95.0966622 C149,91.7835151 151.676673,89.0976787 155.001338,89.0976787 L202.598662,89.0976787 C205.913109,89.0976787 208.6,86.4146531 208.6,83.0986952 L208.6,65.452278 C208.6,62.139131 211.28393,59.4532946 214.594628,59.4532946 L232.405372,59.4532946 C235.716114,59.4532946 238.4,62.1363202 238.4,65.452278 L238.4,83.0986952 C238.4,86.4118423 241.08393,89.0976787 244.394628,89.0976787 L262.205372,89.0976787 C265.516114,89.0976787 268.2,86.4146531 268.2,83.0986952 L268.2,65.452278 C268.2,62.139131 270.88393,59.4532946 274.194628,59.4532946 L292.005372,59.4532946 C295.316114,59.4532946 298,62.1363202 298,65.452278 L298,83.0986952 C298,86.4118423 300.68393,89.0976787 303.994628,89.0976787 L321.805372,89.0976787 C325.116114,89.0976787 327.8,86.4146531 327.8,83.0986952 L327.8,65.452278 C327.8,62.139131 330.48393,59.4532946 333.794628,59.4532946 L351.605372,59.4532946 C354.916114,59.4532946 357.6,56.770269 357.6,53.4543111 L357.6,35.8078939 C357.6,32.4947468 360.28393,29.8089105 363.594628,29.8089105 L381.405372,29.8089105 C384.716114,29.8089105 387.4,32.4919361 387.4,35.8078939 L387.4,53.4543111 C387.4,56.7674582 390.08393,59.4532946 393.394628,59.4532946 L411.205372,59.4532946 C414.516114,59.4532946 417.2,56.770269 417.2,53.4543111 L417.2,35.8078939 C417.2,32.4947468 419.88393,29.8089105 423.194628,29.8089105 L447,29.8089105 L447,0.164526332 L0,0.164526332 L0,148.386447 Z" opacity=".4"></path>
    <path fill="url(#b)" d="M0 .164526332L0 59.4532946 23.7343609 59.4532946C27.0475841 59.4532946 29.7334821 56.770269 29.7334821 53.4543111L29.7334821 35.8078939C29.7334821 32.4947468 32.4245718 29.8089105 35.7326034 29.8089105L53.4678431 29.8089105C56.7810662 29.8089105 59.4669643 32.4919361 59.4669643 35.8078939L59.4669643 53.4543111C59.4669643 56.7674582 62.1580539 59.4532946 65.4660855 59.4532946L83.2013252 59.4532946C86.5145484 59.4532946 89.2004464 62.1363202 89.2004464 65.452278L89.2004464 83.0986952C89.2004464 86.4118423 91.891536 89.0976787 95.1995677 89.0976787L112.934807 89.0976787C116.248031 89.0976787 118.933929 86.4155735 118.933929 83.1002257L118.933929 35.8063634C118.933929 32.4940616 121.625018 29.8089105 124.93305 29.8089105L142.668289 29.8089105C145.981513 29.8089105 148.667411 32.4919361 148.667411 35.8078939L148.667411 53.4543111C148.667411 56.7674582 151.3585 59.4532946 154.666532 59.4532946L172.401772 59.4532946C175.714995 59.4532946 178.400893 56.770269 178.400893 53.4543111L178.400893 35.8078939C178.400893 32.4947468 181.091982 29.8089105 184.400014 29.8089105L202.135254 29.8089105C205.448477 29.8089105 208.134375 27.1258848 208.134375 23.809927L208.134375.164526332 0 .164526332zM267.601339.164526332L267.601339 53.4558416C267.601339 56.7681434 270.292429 59.4532946 273.600461 59.4532946L291.3357 59.4532946C294.648923 59.4532946 297.334821 56.770269 297.334821 53.4543111L297.334821 35.8078939C297.334821 32.4947468 300.025911 29.8089105 303.333943 29.8089105L321.069182 29.8089105C324.382406 29.8089105 327.068304 27.1258848 327.068304 23.809927L327.068304.164526332 267.601339.164526332z" opacity=".4"></path>
  </g>
</svg>

