<svg xmlns="http://www.w3.org/2000/svg" height="377.92" width="389.97"><path style="line-height:125%" d="M63.007 297.75l-5.48 42.093q-1.437 12.93-8.355 18.568-6.827 5.736-19.135 5.736-10.51 0-16.53-2.625l.99-8.456q3.053.097 12.666.097 14.373 0 17.068-8.845.36-1.07.9-3.305.63-2.333 1.258-4.18.628-1.944 1.617-3.5-3.324 5.25-8.445 8.36-5.03 3.11-11.23 3.208-8.085.195-11.14-5.832-2.964-6.027-1.077-19.83.898-6.612 2.426-11.18 1.616-4.57 3.412-7.097 1.797-2.626 4.582-3.987 2.785-1.458 5.3-1.75 2.516-.388 6.38-.388 13.833 0 24.793 2.916zm-14.194 7.68h-7.187q-6.558 0-8.714 2.528-2.066 2.43-3.324 11.47-1.257 9.14-.63 11.764.72 2.624 3.954 2.43 6.02-.292 13.296-9.04l2.605-19.15zM84.455 296.196l-.18 9.235q3.953-4.374 8.894-7.387 4.94-3.014 9.702-3.014 7.815 0 10.78 5.93 2.964 5.93 1.168 20.122-.81 6.22-2.246 10.693-1.348 4.374-3.144 7-1.797 2.624-4.402 4.18-2.516 1.457-5.12 1.943-2.516.486-6.02.486-6.558 0-13.206-1.263 0 4.57-.63 9.04l-1.436 9.43H65.32l8.625-66.394h10.51zM82.3 335.372h6.827q6.827 0 8.894-2.43 2.157-2.528 3.324-12.055 1.078-9.138.36-11.665-.63-2.625-3.683-2.625-2.335 0-5.93 2.14-3.592 2.137-7.185 5.734L82.3 335.373zM158.457 332.747l.9 9.43q-6.83 3.11-17.25 3.11-12.038 0-16.8-6.027-4.76-6.027-2.964-19.734 1.797-13.512 7.187-19.053 5.39-5.638 17.25-5.638 10.51 0 16.978 3.11l-1.797 8.75q-10.42-.195-13.385-.195-6.198 0-8.893 2.82-2.606 2.72-3.504 10.887-.988 8.457.63 10.985 1.706 2.43 7.635 2.43 8.355 0 14.014-.875zM208.492 344.12H198.16l.09-8.65q-6.827 9.525-18.146 9.817-8.355.292-11.32-5.833-2.874-6.22-.988-20.22.898-6.61 2.515-11.08 1.62-4.57 3.595-7.195 1.976-2.626 5.12-3.987 3.145-1.36 6.02-1.75 2.964-.388 7.456-.388 4.762 0 11.41.875 6.648.874 10.6 2.04l-6.018 46.37zm-8.175-38.69h-6.828q-6.47 0-8.805 2.43-2.336 2.43-3.503 11.57-1.168 9.234-.54 11.86.63 2.526 3.863 2.332 5.93-.097 13.296-9.04l2.517-19.15zM257.258 294.835l-2.964 13.318h-3.234q-2.785 0-5.93 1.36-3.054 1.264-8.893 4.57l-3.773 30.038h-13.296l6.2-47.924h10.33v9.04q10.15-10.4 18.865-10.4h2.695zM273.772 296.196v8.65q4.852-5.248 8.984-7.58 4.222-2.43 8.804-2.43 4.85 0 7.636 2.332 2.785 2.333 3.234 6.61 8.355-8.943 16.71-8.943 6.108 0 8.893 3.694 2.875 3.596 2.066 9.914l-4.582 35.677h-13.206l4.132-31.787q.36-3.014-.45-4.18-.807-1.167-2.784-1.167-2.246 0-4.76 1.555-2.516 1.557-6.83 5.737l-3.86 29.844H285l4.042-31.787q.45-2.917-.27-4.083-.718-1.264-2.874-1.264-2.335 0-4.94 1.555-2.516 1.46-6.65 5.348l-3.86 30.233h-13.207l6.198-47.924h10.332zM362.616 294.835q12.307 0 17.158 6.027 4.85 6.027 3.055 19.928-1.708 13.512-7.458 19.053-5.66 5.54-17.697 5.54-12.218 0-17.25-6.026-4.94-6.027-3.143-19.734 1.797-13.61 7.456-19.15 5.66-5.638 17.878-5.638zm-.09 10.79q-5.48 0-7.906 3.014-2.336 3.012-3.503 12.15-1.078 8.36.27 11.082 1.347 2.722 6.557 2.722 5.39 0 7.726-3.014 2.336-3.11 3.504-11.957 1.167-8.36-.27-11.18-1.348-2.818-6.378-2.818z" font-style="italic" font-weight="bold" font-family="Exo 2" letter-spacing="0" word-spacing="0"/><path style="line-height:125%" d="M128.8 355.756q-4.052-.24-5.516-.24-1.44 0-2.25.6-.79.574-1.172 2.13-.383 1.532-.383 4.452 0 7.133 3.827 7.133l5.493-.166v1.412q-2.657.527-5.493.527-5.494 0-5.494-8.953 0-4.548 1.15-6.726 1.17-2.18 4.344-2.18 2.454 0 5.493.6v1.412zM134.864 371.58q-2.995 0-4.143-1.413-1.147-1.413-1.147-5.075 0-3.663 1.148-5.05 1.15-1.413 4.144-1.413t4.12 1.435q1.125 1.412 1.125 5.1 0 3.685-1.126 5.05-1.126 1.364-4.12 1.364zm-3.107-9.983q-.225.527-.383 1.436-.135.886-.135 2.346t.202 2.393q.225.933.743 1.364.54.43 1.08.55.563.12 1.576.12 1.037 0 1.6-.12.585-.12 1.08-.55.518-.455.72-1.364.203-.934.203-2.562 0-1.626-.18-2.608-.157-.98-.653-1.46-.495-.503-1.08-.622-.563-.12-1.554-.12-.99 0-1.486.072-.495.072-.99.335t-.743.79zM142.594 371.46v-12.712h1.17l.496 1.484q.067-.023.495-.287.428-.287.518-.335.113-.048.495-.263.383-.24.54-.287.158-.048.518-.192.36-.144.586-.19.72-.145 1.26-.145 1.71 0 2.702 1.197.99 1.197.99 2.872v8.857H150.7V362.6q0-1.125-.564-1.7-.563-.598-1.44-.598-.88 0-1.644.192-.766.19-1.24.407-.45.19-1.552.766v9.79h-1.666zM154.192 362.89v-1.102q0-1.556.72-2.345.72-.814 2.612-.814 1.913 0 5.65.382v1.364H157.3q-1.037 0-1.262.407-.18.31-.18 1.005v1.102q0 .957.427 1.172.36.192 1.014.192h3.556q1.418 0 2.16.862.766.838.766 2.226v1.173q0 1.77-.81 2.418-.81.646-2.116.646-2.094 0-6.17-.456v-1.317h6.17q0-.023.112 0 .135.024.315-.047.203-.072.383-.168.45-.24.45-1.077v-1.173q0-.67-.292-.98-.27-.337-.968-.337H157.3q-1.645 0-2.388-.67-.72-.67-.72-2.465zM165.805 367.605v-8.857h1.666v8.857q0 1.125.564 1.724.563.573 1.44.573.88 0 1.645-.19.764-.193 1.214-.384.473-.217 1.576-.79v-9.792h1.666v12.71h-1.17l-.496-1.483q-.067.024-.495.31-.428.265-.54.312-.09.048-.473.288-.383.215-.54.263-.158.048-.518.19-.36.145-.586.193-.72.145-1.26.145-1.71 0-2.702-1.197-.99-1.197-.99-2.873zM178.3 366.935v-14.22h1.664v14.22q0 1.46.316 2.035.315.55.968.718 1.846.502 2.003.502v1.27h-1.98q-2.97 0-2.97-4.525zM183.026 360.496v-1.34l2.23-.432.404-3.542h1.26v3.542h3.49v1.772h-3.49v6.415q0 1.46.316 2.036.315.55.968.718 1.846.503 2.004.503v1.268h-1.98q-2.973 0-2.973-4.524v-6.414h-2.23zM197.523 371.58q-2.995 0-4.143-1.413-1.148-1.413-1.148-5.075 0-3.663 1.148-5.05 1.148-1.413 4.143-1.413 2.994 0 4.12 1.435 1.125 1.412 1.125 5.1 0 3.685-1.125 5.05-1.126 1.364-4.12 1.364zm-3.107-9.983q-.225.527-.383 1.436-.135.886-.135 2.346t.203 2.393q.226.933.744 1.364.54.43 1.08.55.563.12 1.576.12 1.036 0 1.6-.12.584-.12 1.08-.55.517-.455.72-1.364.202-.934.202-2.562 0-1.626-.18-2.608-.157-.98-.653-1.46-.496-.503-1.08-.622-.564-.12-1.555-.12-.99 0-1.486.072t-.99.335q-.496.263-.744.79zM205.253 371.46v-12.712h1.17l.496 1.604q1.71-1.1 2.16-1.245.45-.167.81-.287.676-.215 1.734-.215 1.058 0 1.418.19v1.75q-.54-.145-1.53-.145t-1.78.192q-.764.19-1.237.406-.45.216-1.576.79v9.67h-1.667zM214.613 356.69v-1.293q0-.598.54-.598h1.126q.517 0 .517.597v1.293q0 .55-.518.55h-1.126q-.54 0-.54-.55zm.226 14.77v-12.712h1.665v12.71h-1.666zM219.212 359.227q2.432-.718 5.9-.718 1.462 0 2.408.91.968.908.968 2.775v9.264h-1.24l-.426-1.533-.338.168q-2.927 1.508-4.66 1.508-1.284 0-2.14-.838-.855-.838-.855-2.322v-1.46q0-1.46.787-2.322.81-.86 2.207-.86H226.823q.022-.79.022-1.174 0-.407-.022-.43 0-1.964-1.936-1.964-1.937 0-5.674.288v-1.293zm1.283 9.096q0 1.508 1.33 1.508.81 0 2.047-.31 1.26-.31 2.117-.598l.832-.31v-3.424l-4.998.383q-.676.072-1.013.503-.315.43-.315 1.053v1.197zM236.38 365.044q0-2.107.27-3.375.27-1.294.967-1.94.72-.67 1.576-.862.878-.215 2.252-.215 1.396 0 2.093.12.698.12 1.374.55.675.43.968 1.364.292.934.292 2.466 0 2.92-3.084 2.92h-5.043q0 2.226.473 2.992.473.742 1.8.742 4.098 0 5.63-.24v1.342q-2.23.67-5.63.67-2.273 0-3.106-1.39-.833-1.388-.833-5.146zm1.665-.718h5.043q1.42 0 1.42-1.173 0-1.843-.52-2.274-.495-.456-2.363-.456-2.32 0-2.77.503-.63.718-.72 1.58-.09.86-.09 1.82zM248.433 371.46v-12.712h1.17l.496 1.532q.134-.095.54-.335l.584-.36q.18-.12.54-.31.383-.192.63-.263l.564-.216q.54-.19 1.53-.19t1.892.5q.9.504 1.283 1.366 2.116-1.867 4.818-1.867 1.577 0 2.635 1.15 1.058 1.148 1.058 2.943v8.76h-1.666v-8.76q0-1.053-.585-1.676-.563-.646-1.44-.646-1.352 0-2.342.287-.97.288-2.072 1.054v9.742h-1.666v-8.762q0-1.053-.585-1.676-.563-.646-1.44-.646-.856 0-1.6.192-.72.19-1.125.383-.405.168-1.553.767v9.742h-1.667zM273.95 355.708v-1.77h11.437v1.77h-4.953v15.75h-1.666v-15.75h-4.818zM283.472 365.044q0-2.107.27-3.375.27-1.294.97-1.94.72-.67 1.575-.862.878-.215 2.25-.215 1.397 0 2.095.12.698.12 1.373.55.675.43.968 1.364.293.934.293 2.466 0 2.92-3.085 2.92h-5.042q0 2.226.473 2.992.474.742 1.802.742 4.098 0 5.63-.24v1.342q-2.23.67-5.63.67-2.274 0-3.107-1.39-.833-1.388-.833-5.146zm1.666-.718h5.043q1.42 0 1.42-1.173 0-1.843-.518-2.274-.495-.456-2.364-.456-2.32 0-2.77.503-.63.718-.72 1.58-.09.86-.09 1.82zM295.593 368.443q-.292-1.34-.292-3.35 0-2.012.27-3.33.293-1.34.856-1.985.563-.67 1.216-.91t2.116-.24q1.464 0 4.615.623v1.294q-3.13-.144-4.435-.144-1.305 0-1.643.12-.338.12-.698.55-.63.838-.63 3.83 0 2.97.495 3.95.518.957 1.778.957 2.117 0 4.436-.19l.855-.073v1.34q-2.16.647-5.29.695-.923 0-1.575-.24-.63-.24-1.216-.886-.564-.67-.857-2.01zM306.782 371.46v-12.712h1.17l.496 1.484q.068-.023.496-.287.427-.287.518-.335.112-.048.495-.263.383-.24.54-.287.158-.048.518-.192.36-.144.585-.19.72-.145 1.26-.145 1.712 0 2.703 1.197.99 1.197.99 2.872v8.857h-1.666V362.6q0-1.125-.563-1.7-.562-.598-1.44-.598-.878 0-1.644.192-.765.19-1.238.407-.45.19-1.554.766v9.79h-1.666zM323.896 371.58q-2.994 0-4.142-1.413-1.15-1.413-1.15-5.075 0-3.663 1.15-5.05 1.148-1.413 4.142-1.413 2.994 0 4.12 1.435 1.126 1.412 1.126 5.1 0 3.685-1.126 5.05-1.126 1.364-4.12 1.364zm-3.107-9.983q-.226.527-.384 1.436-.135.886-.135 2.346t.204 2.393q.225.933.743 1.364.54.43 1.08.55.563.12 1.577.12 1.035 0 1.598-.12.585-.12 1.08-.55.518-.455.72-1.364.204-.934.204-2.562 0-1.626-.18-2.608-.158-.98-.653-1.46-.496-.503-1.08-.622-.564-.12-1.554-.12-.992 0-1.487.072-.496.072-.99.335-.496.263-.744.79zM331.626 366.935v-14.22h1.666v14.22q0 1.46.315 2.035.316.55.968.718 1.846.502 2.004.502v1.27h-1.982q-2.972 0-2.972-4.525zM342.32 371.58q-2.994 0-4.142-1.413-1.15-1.413-1.15-5.075 0-3.663 1.15-5.05 1.148-1.413 4.142-1.413 2.994 0 4.12 1.435 1.126 1.412 1.126 5.1 0 3.685-1.126 5.05-1.126 1.364-4.12 1.364zm-3.107-9.983q-.225.527-.383 1.436-.135.886-.135 2.346t.203 2.393q.225.933.743 1.364.54.43 1.082.55.562.12 1.575.12 1.036 0 1.6-.12.584-.12 1.08-.55.517-.455.72-1.364.203-.934.203-2.562 0-1.626-.18-2.608-.158-.98-.653-1.46-.496-.503-1.08-.622-.564-.12-1.554-.12-.99 0-1.486.072t-.99.335q-.496.263-.744.79zM349.78 368.706q0-.67.338-1.244.337-.6.99-.742-1.306-.886-1.306-3.304 0-2.418 1.014-3.567 1.035-1.15 2.88-1.15h7.025v1.34l-1.822.432q.022.048.157.31.135.24.203.408.068.144.158.455.18.574.18 1.412t-.158 1.532q-.135.693-.495 1.507-.36.79-1.148 1.293-.788.502-1.914.502h-3.51q-.924 0-.924.72 0 .812.923.812h4.794q1.374 0 2.14.91.765.886.765 2.394v1.508q0 1.293-.564 2.346-.338.622-1.058.98-.72.36-1.756.36h-3.377q-1.644 0-2.635-.933-.968-.935-.968-2.754V372.2l.9-1.555q-.832-.622-.832-1.94zm2.61 2.49q-.606 0-1.012-.192v3.232q0 1.915 1.937 1.915h3.377q1.71 0 1.71-1.914v-1.388q0-.91-.315-1.293-.292-.36-1.215-.36h-4.48zm-.922-7.97q0 1.004.293 1.674.54 1.22 1.78 1.22h2.206q1.216 0 1.688-.86.496-.886.496-1.868 0-1.436-.496-2.178-.472-.742-1.71-.742h-2.027q-2.23 0-2.23 2.753zM362.313 356.69v-1.293q0-.598.54-.598h1.126q.517 0 .517.597v1.293q0 .55-.518.55h-1.127q-.54 0-.54-.55zm.225 14.77v-12.712h1.666v12.71h-1.666zM366.91 359.227q2.433-.718 5.9-.718 1.463 0 2.41.91.967.908.967 2.775v9.264h-1.238l-.43-1.533-.337.168q-2.926 1.508-4.66 1.508-1.283 0-2.14-.838-.854-.838-.854-2.322v-1.46q0-1.46.787-2.322.81-.86 2.206-.86h4.997q.023-.79.023-1.174 0-.407-.022-.43 0-1.964-1.935-1.964-1.936 0-5.674.288v-1.293zm1.285 9.096q0 1.508 1.328 1.508.81 0 2.05-.31 1.26-.31 2.115-.598l.833-.31v-3.424l-4.997.383q-.675.072-1.013.503-.315.43-.315 1.053v1.197z" font-size="23.214" font-family="Exo" letter-spacing="0" word-spacing="0"/><rect x=".742" y=".697" width="388.492" height="272.141" ry="56.304" fill-rule="evenodd" stroke="#000" stroke-width="1.445"/><g fill="#eee"><path d="M126.428 215.76c-2.234-3.89-3.352-7.93-4.15-12.12h-52.2c-3.83 0-5.586-2.393-6.224-3.44-.64-1.048-1.756-3.74.32-6.733l12.77-17.804c4.788-6.582 12.61-10.472 21.07-10.472h127.704c3.83 0 5.587 2.395 6.226 3.442.638 1.047 1.756 3.74-.32 6.732l-12.77 17.804c-.16.15-.32.3-.48.598h30.17l3.833-5.386c6.544-9.126 7.183-20.945 1.755-30.67-5.587-9.724-16.282-15.858-28.094-15.858H98.334c-16.762 0-32.405 7.78-41.823 20.795L43.74 180.45c-6.545 9.127-7.183 20.946-1.756 30.67 5.587 9.726 16.282 15.86 28.095 15.86h65.926c-3.83-3.142-7.023-6.882-9.578-11.22z"/><path d="M347.995 157.56c-5.587-9.724-16.282-15.858-28.095-15.858h-65.927c3.83 3.142 7.024 6.882 9.418 11.07 2.236 3.89 3.353 7.93 4.15 12.12h52.36c3.83 0 5.587 2.393 6.226 3.44.638 1.048 1.756 3.74-.32 6.733l-12.77 17.804c-4.79 6.58-12.61 10.47-21.07 10.47H164.26c-3.83 0-5.586-2.392-6.225-3.44-.638-1.047-1.756-3.74.32-6.732l12.77-17.804c.16-.15.32-.3.48-.598h-30.17l-3.832 5.386c-6.545 9.126-7.184 20.945-1.756 30.67 5.587 9.724 16.282 15.858 28.095 15.858h127.704c16.76 0 32.404-7.78 41.823-20.795l12.77-17.804c6.544-8.976 7.182-20.795 1.755-30.52zM126.428 120.607c-2.234-3.89-3.352-7.93-4.15-12.118h-52.2c-3.83 0-5.586-2.395-6.224-3.442-.64-1.048-1.756-3.74.32-6.733l12.77-17.804c4.788-6.58 12.61-10.47 21.07-10.47h127.704c3.83 0 5.587 2.393 6.226 3.44.638 1.047 1.756 3.74-.32 6.732l-12.77 17.804c-.16.15-.32.3-.48.598h30.17l3.833-5.386c6.544-9.126 7.183-20.945 1.755-30.67-5.746-9.874-16.44-16.008-28.254-16.008H98.174c-16.76 0-32.405 7.78-41.663 20.796L43.74 85.15c-6.545 9.126-7.183 20.945-1.756 30.67 5.428 9.874 16.282 15.858 28.095 15.858h65.926c-3.83-3.142-7.023-6.732-9.578-11.07z"/><path d="M347.995 62.41c-5.587-9.726-16.282-15.86-28.095-15.86h-65.927c3.83 3.142 7.024 6.882 9.418 11.07 2.236 3.89 3.353 7.93 4.15 12.12h52.36c3.83 0 5.587 2.393 6.226 3.44.638 1.048 1.756 3.74-.32 6.733l-12.77 17.804c-4.79 6.582-12.61 10.472-21.07 10.472H164.26c-3.83 0-5.586-2.394-6.225-3.442-.638-1.047-1.756-3.74.32-6.732l12.77-17.804c.16-.15.32-.3.48-.598h-30.17L137.602 85c-6.545 9.126-7.184 20.945-1.756 30.67 5.587 9.724 16.282 15.86 28.095 15.86h127.704c16.76 0 32.404-7.78 41.823-20.797l12.77-17.804c6.544-8.977 7.182-20.797 1.755-30.52zM126.428 215.76c-2.234-3.89-3.352-7.93-4.15-12.12h-52.2c-3.83 0-5.586-2.393-6.224-3.44-.64-1.048-1.756-3.74.32-6.733l12.77-17.804c4.788-6.582 12.61-10.472 21.07-10.472h127.704c3.83 0 5.587 2.395 6.226 3.442.638 1.047 1.756 3.74-.32 6.732l-12.77 17.804c-.16.15-.32.3-.48.598h30.17l3.833-5.386c6.544-9.126 7.183-20.945 1.755-30.67-5.587-9.724-16.282-15.858-28.094-15.858H98.334c-16.762 0-32.405 7.78-41.823 20.795L43.74 180.45c-6.545 9.127-7.183 20.946-1.756 30.67 5.587 9.726 16.282 15.86 28.095 15.86h65.926c-3.83-3.142-7.023-6.882-9.578-11.22z"/><path d="M347.995 157.56c-5.587-9.724-16.282-15.858-28.095-15.858h-65.927c3.83 3.142 7.024 6.882 9.418 11.07 2.236 3.89 3.353 7.93 4.15 12.12h52.36c3.83 0 5.587 2.393 6.226 3.44.638 1.048 1.756 3.74-.32 6.733l-12.77 17.804c-4.79 6.58-12.61 10.47-21.07 10.47H164.26c-3.83 0-5.586-2.392-6.225-3.44-.638-1.047-1.756-3.74.32-6.732l12.77-17.804c.16-.15.32-.3.48-.598h-30.17l-3.832 5.386c-6.545 9.126-7.184 20.945-1.756 30.67 5.587 9.724 16.282 15.858 28.095 15.858h127.704c16.76 0 32.404-7.78 41.823-20.795l12.77-17.804c6.544-8.976 7.182-20.795 1.755-30.52zM126.428 120.607c-2.234-3.89-3.352-7.93-4.15-12.118h-52.2c-3.83 0-5.586-2.395-6.224-3.442-.64-1.048-1.756-3.74.32-6.733l12.77-17.804c4.788-6.58 12.61-10.47 21.07-10.47h127.704c3.83 0 5.587 2.393 6.226 3.44.638 1.047 1.756 3.74-.32 6.732l-12.77 17.804c-.16.15-.32.3-.48.598h30.17l3.833-5.386c6.544-9.126 7.183-20.945 1.755-30.67-5.746-9.874-16.44-16.008-28.254-16.008H98.174c-16.76 0-32.405 7.78-41.663 20.796L43.74 85.15c-6.545 9.126-7.183 20.945-1.756 30.67 5.428 9.874 16.282 15.858 28.095 15.858h65.926c-3.83-3.142-7.023-6.732-9.578-11.07z"/><path d="M347.995 62.41c-5.587-9.726-16.282-15.86-28.095-15.86h-65.927c3.83 3.142 7.024 6.882 9.418 11.07 2.236 3.89 3.353 7.93 4.15 12.12h52.36c3.83 0 5.587 2.393 6.226 3.44.638 1.048 1.756 3.74-.32 6.733l-12.77 17.804c-4.79 6.582-12.61 10.472-21.07 10.472H164.26c-3.83 0-5.586-2.394-6.225-3.442-.638-1.047-1.756-3.74.32-6.732l12.77-17.804c.16-.15.32-.3.48-.598h-30.17L137.602 85c-6.545 9.126-7.184 20.945-1.756 30.67 5.587 9.724 16.282 15.86 28.095 15.86h127.704c16.76 0 32.404-7.78 41.823-20.797l12.77-17.804c6.544-8.977 7.182-20.797 1.755-30.52z"/></g></svg>