<?xml version="1.0" encoding="UTF-8" standalone="no"?>
<!-- Created with Inkscape (http://www.inkscape.org/) -->
<svg id="svg3094" xmlns:rdf="http://www.w3.org/1999/02/22-rdf-syntax-ns#" xmlns="http://www.w3.org/2000/svg" height="377.92" width="389.97" version="1.1" xmlns:cc="http://creativecommons.org/ns#" xmlns:dc="http://purl.org/dc/elements/1.1/">
<metadata id="metadata3099">
<rdf:RDF>
<cc:Work rdf:about="">
<dc:format>image/svg+xml</dc:format>
<dc:type rdf:resource="http://purl.org/dc/dcmitype/StillImage"/>
<dc:title/>
</cc:Work>
</rdf:RDF>
</metadata>
<g id="layer1" transform="translate(-162.16 -293.4)">
<g id="g6044" transform="matrix(1.5963 0 0 1.4961 691.75 426.18)">
<text id="text6014" style="font-size:60.471px;font-weight:bold;letter-spacing:0px;line-height:125%;word-spacing:0px;font-family:&apos;Exo 2&apos;;font-style:italic;fill:#000000" xml:space="preserve" transform="scale(.93065 1.0745)" y="131.46672" x="-347.93481"><tspan id="tspan6016" x="-347.93481" style="font-style:italic;font-weight:bold;font-family:&apos;Exo 2&apos;" y="131.46672">gpcarmo</tspan></text>
<text id="text6018" style="font-size:11.266px;letter-spacing:0px;line-height:125%;word-spacing:0px;font-family:Exo;fill:#000000" xml:space="preserve" transform="scale(.93885 1.0651)" y="149.78336" x="-275.58453"><tspan id="tspan6020" x="-275.58453" style="font-size:15.022px" y="149.78336">Consultoria em Tecnologia</tspan></text>
<g id="g6022" transform="translate(-420.9 -161.35)">
<rect id="rect6024" style="fill-rule:evenodd;stroke:#000;stroke-width:.93494px" ry="37.634" height="181.9" width="243.37" y="73.065" x="89.604"/>
<g id="g6026" style="fill:#eee" transform="translate(-27.52 -4.7165)">
<path id="path6028" style="fill:#eee" d="m195.86 221.53c-1.4-2.6-2.1-5.3-2.6-8.1h-32.7c-2.4 0-3.5-1.6-3.9-2.3s-1.1-2.5 0.2-4.5l8-11.9c3-4.4 7.9-7 13.2-7h80c2.4 0 3.5 1.6 3.9 2.3s1.1 2.5-0.2 4.5l-8 11.9c-0.1 0.1-0.2 0.2-0.3 0.4h18.9l2.4-3.6c4.1-6.1 4.5-14 1.1-20.5-3.5-6.5-10.2-10.6-17.6-10.6h-80c-10.5 0-20.3 5.2-26.2 13.9l-8 11.9c-4.1 6.1-4.5 14-1.1 20.5 3.5 6.5 10.2 10.6 17.6 10.6h41.3c-2.4-2.1-4.4-4.6-6-7.5z"/>
<path id="path6030" style="fill:#eee" d="m334.66 182.63c-3.5-6.5-10.2-10.6-17.6-10.6h-41.3c2.4 2.1 4.4 4.6 5.9 7.4 1.4 2.6 2.1 5.3 2.6 8.1h32.8c2.4 0 3.5 1.6 3.9 2.3s1.1 2.5-0.2 4.5l-8 11.9c-3 4.4-7.9 7-13.2 7h-80c-2.4 0-3.5-1.6-3.9-2.3s-1.1-2.5 0.2-4.5l8-11.9c0.1-0.1 0.2-0.2 0.3-0.4h-18.9l-2.4 3.6c-4.1 6.1-4.5 14-1.1 20.5 3.5 6.5 10.2 10.6 17.6 10.6h80c10.5 0 20.3-5.2 26.2-13.9l8-11.9c4.1-6 4.5-13.9 1.1-20.4z"/>
<path id="path6032" style="fill:#eee" d="m195.86 157.93c-1.4-2.6-2.1-5.3-2.6-8.1h-32.7c-2.4 0-3.5-1.6-3.9-2.3s-1.1-2.5 0.2-4.5l8-11.9c3-4.4 7.9-7 13.2-7h80c2.4 0 3.5 1.6 3.9 2.3s1.1 2.5-0.2 4.5l-8 11.9c-0.1 0.1-0.2 0.2-0.3 0.4h18.9l2.4-3.6c4.1-6.1 4.5-14 1.1-20.5-3.6-6.6-10.3-10.7-17.7-10.7h-80c-10.5 0-20.3 5.2-26.1 13.9l-8 11.9c-4.1 6.1-4.5 14-1.1 20.5 3.4 6.6 10.2 10.6 17.6 10.6h41.3c-2.4-2.1-4.4-4.5-6-7.4z"/>
<path id="path6034" style="fill:#eee" d="m334.66 119.03c-3.5-6.5-10.2-10.6-17.6-10.6h-41.3c2.4 2.1 4.4 4.6 5.9 7.4 1.4 2.6 2.1 5.3 2.6 8.1h32.8c2.4 0 3.5 1.6 3.9 2.3s1.1 2.5-0.2 4.5l-8 11.9c-3 4.4-7.9 7-13.2 7h-80c-2.4 0-3.5-1.6-3.9-2.3s-1.1-2.5 0.2-4.5l8-11.9c0.1-0.1 0.2-0.2 0.3-0.4h-18.9l-2.4 3.6c-4.1 6.1-4.5 14-1.1 20.5 3.5 6.5 10.2 10.6 17.6 10.6h80c10.5 0 20.3-5.2 26.2-13.9l8-11.9c4.1-6 4.5-13.9 1.1-20.4z"/>
<path id="path6036" style="fill:#eee" d="m195.86 221.53c-1.4-2.6-2.1-5.3-2.6-8.1h-32.7c-2.4 0-3.5-1.6-3.9-2.3s-1.1-2.5 0.2-4.5l8-11.9c3-4.4 7.9-7 13.2-7h80c2.4 0 3.5 1.6 3.9 2.3s1.1 2.5-0.2 4.5l-8 11.9c-0.1 0.1-0.2 0.2-0.3 0.4h18.9l2.4-3.6c4.1-6.1 4.5-14 1.1-20.5-3.5-6.5-10.2-10.6-17.6-10.6h-80c-10.5 0-20.3 5.2-26.2 13.9l-8 11.9c-4.1 6.1-4.5 14-1.1 20.5 3.5 6.5 10.2 10.6 17.6 10.6h41.3c-2.4-2.1-4.4-4.6-6-7.5z"/>
<path id="path6038" style="fill:#eee" d="m334.66 182.63c-3.5-6.5-10.2-10.6-17.6-10.6h-41.3c2.4 2.1 4.4 4.6 5.9 7.4 1.4 2.6 2.1 5.3 2.6 8.1h32.8c2.4 0 3.5 1.6 3.9 2.3s1.1 2.5-0.2 4.5l-8 11.9c-3 4.4-7.9 7-13.2 7h-80c-2.4 0-3.5-1.6-3.9-2.3s-1.1-2.5 0.2-4.5l8-11.9c0.1-0.1 0.2-0.2 0.3-0.4h-18.9l-2.4 3.6c-4.1 6.1-4.5 14-1.1 20.5 3.5 6.5 10.2 10.6 17.6 10.6h80c10.5 0 20.3-5.2 26.2-13.9l8-11.9c4.1-6 4.5-13.9 1.1-20.4z"/>
<path id="path6040" style="fill:#eee" d="m195.86 157.93c-1.4-2.6-2.1-5.3-2.6-8.1h-32.7c-2.4 0-3.5-1.6-3.9-2.3s-1.1-2.5 0.2-4.5l8-11.9c3-4.4 7.9-7 13.2-7h80c2.4 0 3.5 1.6 3.9 2.3s1.1 2.5-0.2 4.5l-8 11.9c-0.1 0.1-0.2 0.2-0.3 0.4h18.9l2.4-3.6c4.1-6.1 4.5-14 1.1-20.5-3.6-6.6-10.3-10.7-17.7-10.7h-80c-10.5 0-20.3 5.2-26.1 13.9l-8 11.9c-4.1 6.1-4.5 14-1.1 20.5 3.4 6.6 10.2 10.6 17.6 10.6h41.3c-2.4-2.1-4.4-4.5-6-7.4z"/>
<path id="path6042" style="fill:#eee" d="m334.66 119.03c-3.5-6.5-10.2-10.6-17.6-10.6h-41.3c2.4 2.1 4.4 4.6 5.9 7.4 1.4 2.6 2.1 5.3 2.6 8.1h32.8c2.4 0 3.5 1.6 3.9 2.3s1.1 2.5-0.2 4.5l-8 11.9c-3 4.4-7.9 7-13.2 7h-80c-2.4 0-3.5-1.6-3.9-2.3s-1.1-2.5 0.2-4.5l8-11.9c0.1-0.1 0.2-0.2 0.3-0.4h-18.9l-2.4 3.6c-4.1 6.1-4.5 14-1.1 20.5 3.5 6.5 10.2 10.6 17.6 10.6h80c10.5 0 20.3-5.2 26.2-13.9l8-11.9c4.1-6 4.5-13.9 1.1-20.4z"/>
</g>
</g>
</g>
</g>
</svg>
