<svg xmlns="http://www.w3.org/2000/svg" width="327.931" height="57.64"><path d="M285.694 12.315l-11.7 28.485h-6.72l-11.816-28.485h8.642l6.598 17.642 6.42-17.642h8.576zM91.7 26.698c0-2.054-.54-3.958-1.606-5.71-1.228-2.057-2.833-3.085-4.814-3.085-.833 0-1.666.207-2.496.628-2.102 1.066-3.128 3.75-3.09 8.058v2.053c0 1.64.536 3.086 1.605 4.344 1.066 1.255 2.415 1.882 4.04 1.882 1.94 0 3.52-.91 4.754-2.738 1.067-1.637 1.605-3.443 1.605-5.43m8.037.177c0 3.998-1.24 7.33-3.71 9.998-2.473 2.663-5.762 3.995-9.868 3.995-2.51 0-4.666-.802-6.46-2.4V57.64h-8.04V24.646c0-3.696 1.29-6.703 3.87-9.03 2.58-2.322 5.83-3.48 9.75-3.48 4.32 0 7.837 1.445 10.56 4.342 2.597 2.776 3.897 6.242 3.897 10.397M155.688 23.143c0-2.046-.464-4.664-4.474-4.664-6.284 0-6.84 1.97-6.84 4.663h11.314zm9.027 17.717h-11.517c.075 0-.818.08-2.058 0-.957-.038-2.105-.135-4.065-.415-3.36-.762-5.987-2.328-7.888-4.69-1.902-2.366-2.85-5.273-2.85-8.722 0-4.37 1.44-7.928 4.318-10.675 2.88-2.744 6.5-4.12 10.858-4.12 3.724 0 6.82 1.04 9.302 3.125 2.603 2.207 3.9 5.155 3.9 8.842v3.755h-20.337c.324 4.933 2.667 7.317 7.202 7.317h13.135v5.583zM38.647 40.8h-7.86V23.22c0-1.44-.49-2.607-1.473-3.508-.978-.9-2.19-1.352-3.63-1.352-1.758 0-3.028.37-3.81 1.11-.78.743-1.17 1.99-1.17 3.75V40.8h-7.92V21.78c0-3.038 1.438-5.458 4.32-7.258 2.48-1.52 5.34-2.28 8.58-2.28 3.2 0 6.06.76 8.58 2.28 2.92 1.8 4.38 4.22 4.38 7.258V40.8h.003zM69.024 32.038c0 5.803-4.772 8.7-14.316 8.7H43.525v-5.46H54.76c1.33 0 2.6-.196 3.81-.597 1.61-.56 2.415-1.36 2.415-2.402 0-.917-1.507-1.737-4.516-2.457-4.255-1.04-7.062-1.88-8.43-2.522-3.008-1.477-4.515-3.557-4.515-6.24 0-2.917 1.54-5.2 4.622-6.836 2.477-1.325 5.32-1.984 8.517-1.984h10.5v6.183H56.85c-1.08 0-2.124.16-3.125.477-1.36.482-2.04 1.162-2.04 2.04 0 .72 1.502 1.44 4.5 2.162 4.04 1.04 6.82 1.96 8.336 2.758 3.003 1.523 4.504 3.58 4.504 6.18M112.182 5.22c0 1.36-.415 2.502-1.26 3.42-.84.92-1.92 1.377-3.242 1.377-1.318 0-2.38-.45-3.177-1.35-.798-.9-1.2-2.03-1.2-3.386 0-1.36.395-2.49 1.2-3.39.797-.9 1.88-1.352 3.242-1.352 1.318 0 2.388.443 3.207 1.324.82.88 1.23 2 1.23 3.357M103.723 12.18h7.923V40.8h-7.923V12.18zM8.88 5.232c0 1.357-.425 2.5-1.265 3.415-.84.918-1.92 1.373-3.244 1.373-1.317-.003-2.376-.455-3.177-1.355C.396 7.765-.004 6.633 0 5.275 0 3.912.403 2.786 1.206 1.89 2.01.99 3.09.544 4.45.544 5.77.547 6.835.99 7.655 1.872c.818.876 1.228 1.998 1.225 3.36M135.357 18.48h-5.16c-1.68 0-3.12.6-4.32 1.797-1.2 1.196-1.8 2.633-1.8 4.306V40.8h-7.8V24.84c0-4.12 1.3-7.298 3.9-9.538 2.48-2.082 5.818-3.122 10.02-3.122h5.16v6.3zM201.16 41.157h-3.417c-4.005 0-7.093-1.148-9.27-3.45-2.18-2.305-3.268-5.48-3.268-9.526V4.56h8.338v7.62h5.817v6.12h-5.817V30.04c0 1.085.52 2.136 1.562 3.162 1.038 1.025 2.12 1.535 3.242 1.535h2.813v6.417zM224.555 18.48h-5.157c-1.685 0-3.12.6-4.322 1.797-1.196 1.196-1.8 2.633-1.8 4.306V40.8h-7.8V24.84c0-4.12 1.3-7.298 3.9-9.538 2.484-2.082 5.823-3.122 10.022-3.122h5.163v6.3h-.005zM243.116 18.556c-.836-.418-1.673-.63-2.51-.63-1.99 0-3.6 1.026-4.833 3.077-1.073 1.743-1.61 3.644-1.61 5.69 0 1.97.537 3.774 1.61 5.41 1.19 1.855 2.784 2.785 4.78 2.785 1.63 0 2.984-.634 4.052-1.9 1.075-1.274 1.61-2.704 1.61-4.3v-2.102c.05-4.295-.988-6.968-3.1-8.03M254.14 40.18h-7.916v-1.763c-1.8 1.632-3.96 2.447-6.475 2.447-4.12 0-7.422-1.337-9.9-4.012-2.485-2.674-3.724-5.99-3.724-9.933 0-4.174 1.3-7.65 3.9-10.416 2.723-2.883 6.244-4.323 10.56-4.323 3.918 0 7.16 1.157 9.723 3.473 2.557 2.31 3.84 5.31 3.84 8.99v15.538h-.008zM306.965 23.143c0-2.046-.458-4.664-4.468-4.664-6.287 0-6.842 1.97-6.842 4.663h11.31zm9.027 17.717h-11.517c.072 0-.824.08-2.058 0-.963-.038-2.105-.135-4.065-.415-3.362-.762-5.993-2.328-7.89-4.69-1.906-2.366-2.85-5.273-2.85-8.722 0-4.37 1.433-7.928 4.314-10.675 2.88-2.744 6.5-4.12 10.864-4.12 3.717 0 6.817 1.04 9.296 3.125 2.6 2.207 3.9 5.155 3.9 8.842v3.755H295.65c.322 4.933 2.666 7.317 7.2 7.317h13.136v5.583h.006zM327.93 40.8h-7.916V0h7.917v40.8zM.404 12.17H8.27v28.636H.405V12.17z"/></svg>