<svg xmlns="http://www.w3.org/2000/svg" height="427.833" width="704.067" viewBox="120.8499 206.91983 704.06761 427.84311"><g transform="translate(-.004 212.038)"><path d="M215.955 398.537c-16.417 0-29.85-14.497-29.85-32.217V30.445c0-17.72 13.433-32.218 29.85-32.218h513.873c16.42 0 29.85 14.498 29.85 32.218V366.32c0 17.72-13.43 32.217-29.85 32.217H215.955" fill="#d1d1d1"/><path d="M215.955 393.58c-13.89 0-25.257-12.266-25.257-27.26V30.445c0-14.994 11.366-27.26 25.257-27.26h513.873c13.89 0 25.257 12.266 25.257 27.26V366.32c0 14.994-11.366 27.26-25.257 27.26H215.955" fill="#1b1b1b"/><path d="M220.548 368.8c-3.79 0-6.89-3.347-6.89-7.436V35.4c0-4.088 3.1-7.434 6.89-7.434h504.688c3.79 0 6.888 3.346 6.888 7.435v325.964c0 4.09-3.098 7.435-6.89 7.435H220.55" fill="#333"/><path d="M709.163 339.06c0 2.726-2.067 4.956-4.593 4.956H241.213c-2.528 0-4.592-2.23-4.592-4.956V57.705c0-2.726 2.065-4.956 4.593-4.956H704.57c2.526 0 4.593 2.23 4.593 4.955V339.06" fill="#333"/><path d="M260.913 72.872h111.822v-7.975H260.913v7.975z" fill="#b4b4b4"/><g fill="#f3361e"><path d="M260.914 87.295h37.272V79.32h-37.272v7.975zM260.914 144.964h37.272v-7.976h-37.272v7.976zM260.914 159.387h37.272v-7.975h-37.272v7.975z"/></g><path d="M260.913 318.02h43.964v-7.978h-43.964v7.977z" fill="#f3ac1e"/><path d="M261.304 332.443h37.273v-7.975h-37.273v7.975z" fill="#f3361e"/><g fill="#f3ac1e"><path d="M273.818 173.81h37.273v-7.974H273.82v7.975zM273.818 202.657h41.112v-7.973h-41.112v7.973zM273.818 231.48h41.112v-7.974h-41.112v7.973zM273.818 274.75h43.008v-7.976h-43.008v7.975zM260.914 101.694h43.963V93.72h-43.963v7.974zM442.032 101.694h43.964V93.72h-43.964v7.974z"/></g><path d="M313.954 101.694h118.992V93.72H313.954v7.974z" fill="#2998cd"/><path d="M260.913 130.54h43.964v-7.974h-43.964v7.975zM420.058 130.54h43.966v-7.974h-43.966v7.975z" fill="#f3361e"/><path d="M313.954 130.54h96.98v-7.974h-96.98v7.975z" fill="#2998cd"/><path d="M260.913 116.117h43.964v-7.972h-43.964v7.972zM475.968 116.117h43.964v-7.972h-43.964v7.972z" fill="#f3ac1e"/><g fill="#2998cd"><path d="M313.954 116.117h152.922v-7.972H313.954v7.972zM290.533 245.903h118.99v-7.975h-118.99v7.975zM418.428 245.903h118.99v-7.975h-118.99v7.975zM290.533 260.326h152.92v-7.975h-152.92v7.976zM290.533 289.173h118.99V281.2h-118.99v7.973zM418.428 289.173h51.85V281.2h-51.85v7.973zM480.147 289.173h38.564V281.2h-38.563v7.973zM290.533 303.596h173.473v-7.972H290.533v7.972z"/></g><path d="M290.533 217.08h43.964v-7.974h-43.964v7.975zM506.07 217.08h43.967v-7.974H506.07v7.975z" fill="#f3361e"/><path d="M343.827 217.08h152.92v-7.974h-152.92v7.975zM285.298 188.234h152.92v-7.975h-152.92v7.974z" fill="#2998cd"/><path d="M447.29 188.234h45.998v-7.975H447.29v7.974z" fill="#b4b4b4"/><path d="M595 67.618h38.21v-2.723H595v2.723z" fill="#627684"/><path d="M595 77.432h15.023v-2.726H595v2.726z" fill="#827239"/><g fill="#823639"><path d="M595 72.525h12.734v-2.723H595v2.723zM595 92.153h12.734V89.43H595v2.723zM595 97.06h12.734v-2.726H595v2.726z"/></g><path d="M595 151.606h15.023v-2.724H595v2.724z" fill="#827239"/><path d="M595.137 156.314h12.737v-2.726h-12.737v2.726z" fill="#823639"/><g fill="#827239"><path d="M599.408 101.967h12.736V99.24h-12.736v2.727zM599.408 111.78h14.048v-2.723h-14.048v2.723zM599.408 121.594h14.048v-2.726h-14.048v2.726zM599.408 136.315h14.697v-2.72h-14.697v2.72zM656.903 77.432h15.02v-2.726h-15.02v2.726z"/></g><path d="M613.116 77.432h40.66v-2.726h-40.66v2.726z" fill="#1d6891"/><path d="M595 87.246h15.023V84.52H595v2.726zM649.372 87.246h15.02V84.52h-15.02v2.726z" fill="#823639"/><path d="M613.116 87.246h33.142V84.52h-33.142v2.726z" fill="#1d6891"/><path d="M595 82.34h15.023v-2.722H595v2.72zM668.475 82.34H683.5v-2.722h-15.025v2.72z" fill="#827239"/><g fill="#1d6891"><path d="M613.116 82.34h52.255v-2.722h-52.254v2.72zM605.125 126.5h40.66v-2.722h-40.66v2.723zM648.82 126.5h40.66v-2.722h-40.66v2.723zM605.125 131.408h52.253v-2.726h-52.253v2.726zM605.125 141.395h40.66v-2.724h-40.66v2.725zM648.82 141.395h17.72v-2.724h-17.72v2.725zM669.922 141.395h13.176v-2.724h-13.176v2.725zM605.125 146.302H664.4v-2.726h-59.275v2.726z"/></g><path d="M605.125 116.687h15.025v-2.726h-15.025v2.727zM678.762 116.687h15.024v-2.726h-15.024v2.727z" fill="#823639"/><path d="M623.334 116.687h52.252v-2.726h-52.252v2.727zM603.334 106.873h52.25v-2.726h-52.25v2.726z" fill="#1d6891"/><path d="M658.694 106.873h15.72v-2.726h-15.72v2.726zM595 163.006h38.21v-2.723H595v2.723z" fill="#627684"/><path d="M595 172.82h15.023v-2.727H595v2.726z" fill="#827239"/><g fill="#823639"><path d="M595 167.912h12.734v-2.723H595v2.722zM595 187.54h12.734v-2.726H595v2.726zM595 192.447h12.734v-2.726H595v2.727z"/></g><path d="M595 246.993h15.023v-2.724H595v2.723z" fill="#827239"/><path d="M595.137 251.702h12.737v-2.724h-12.737v2.724z" fill="#823639"/><g fill="#827239"><path d="M599.408 197.354h12.736v-2.723h-12.736v2.724zM599.408 207.168h14.048v-2.723h-14.048v2.723zM599.408 216.982h14.048v-2.726h-14.048v2.726zM599.408 231.702h14.697v-2.723h-14.697v2.722zM656.903 172.82h15.02v-2.727h-15.02v2.726z"/></g><path d="M613.116 172.82h40.66v-2.727h-40.66v2.726z" fill="#1d6891"/><path d="M595 182.633h15.023v-2.726H595v2.726zM649.372 182.633h15.02v-2.726h-15.02v2.726z" fill="#823639"/><path d="M613.116 182.633h33.142v-2.726h-33.142v2.726z" fill="#1d6891"/><path d="M595 177.726h15.023v-2.72H595v2.72zM668.475 177.726H683.5v-2.72h-15.025v2.72z" fill="#827239"/><g fill="#1d6891"><path d="M613.116 177.726h52.255v-2.72h-52.254v2.72zM605.125 221.89h40.66v-2.725h-40.66v2.724zM648.82 221.89h40.66v-2.725h-40.66v2.724zM605.125 226.795h52.253v-2.726h-52.253v2.725zM605.125 236.783h40.66v-2.724h-40.66v2.723zM648.82 236.783h17.72v-2.724h-17.72v2.723zM669.922 236.783h13.176v-2.724h-13.176v2.723zM605.125 241.69H664.4v-2.728h-59.275v2.728z"/></g><path d="M605.125 212.075h15.025v-2.728h-15.025v2.728zM678.762 212.075h15.024v-2.728h-15.024v2.728z" fill="#823639"/><path d="M623.334 212.075h52.252v-2.728h-52.252v2.728zM603.334 202.26h52.25v-2.725h-52.25v2.726z" fill="#1d6891"/><path d="M658.694 202.26h15.72v-2.725h-15.72v2.726z" fill="#627684"/><path d="M595 262.333h12.734v-2.726H595v2.726zM595 267.24h12.734v-2.723H595v2.723z" fill="#823639"/><path d="M595 321.786h15.023v-2.723H595v2.723z" fill="#827239"/><path d="M595.137 326.495h12.737v-2.726h-12.737v2.725z" fill="#823639"/><g fill="#827239"><path d="M599.408 272.147h12.736v-2.726h-12.736v2.727zM599.408 281.96h14.048v-2.725h-14.048v2.726zM599.408 291.775h14.048v-2.724h-14.048v2.725zM599.408 306.496h14.697v-2.724h-14.697v2.724z"/></g><path d="M595 257.426h15.023v-2.723H595v2.723zM649.372 257.426h15.02v-2.723h-15.02v2.723z" fill="#823639"/><g fill="#1d6891"><path d="M613.116 257.426h33.142v-2.723h-33.142v2.723zM605.125 296.682h40.66v-2.723h-40.66v2.722zM648.82 296.682h40.66v-2.723h-40.66v2.722zM605.125 301.59h52.253v-2.727h-52.253v2.726zM605.125 311.576h40.66v-2.726h-40.66v2.726zM648.82 311.576h17.72v-2.726h-17.72v2.726zM669.922 311.576h13.176v-2.726h-13.176v2.726zM605.125 316.483H664.4v-2.726h-59.275v2.726z"/></g><path d="M605.125 286.868h15.025v-2.724h-15.025v2.724zM678.762 286.868h15.024v-2.724h-15.024v2.724z" fill="#823639"/><path d="M623.334 286.868h52.252v-2.724h-52.252v2.724zM603.334 277.054h52.25v-2.72h-52.25v2.72z" fill="#1d6891"/><path d="M658.694 277.054h15.72v-2.72h-15.72v2.72z" fill="#627684"/><path d="M127.957 367.56v17.81c0 16.424 12.336 29.74 27.553 29.74h634.763c15.217 0 27.554-13.316 27.554-29.74v-17.81h-689.87" fill="#939393"/><path d="M127.957 362.603v17.81c0 16.424 12.336 29.74 27.553 29.74h634.763c15.217 0 27.554-13.316 27.554-29.74v-17.81h-689.87" fill="#dedede"/><path d="M375.237 375.192h195.327v-12.567H375.237v12.567z" fill="#1b1b1b"/><path d="M461.365 20.68c-3.136 0-5.678-2.743-5.678-6.126 0-3.385 2.542-6.126 5.678-6.126 3.134 0 5.674 2.74 5.674 6.126 0 3.383-2.54 6.126-5.675 6.126m0-10.79c-2.39 0-4.32 2.09-4.32 4.664 0 2.578 1.93 4.662 4.32 4.662 2.386 0 4.32-2.084 4.32-4.662 0-2.575-1.934-4.664-4.32-4.664" fill="#767676"/><path d="M461.365 19.218c-2.39 0-4.32-2.084-4.32-4.66s1.93-4.665 4.32-4.665c2.386 0 4.32 2.09 4.32 4.664 0 2.577-1.934 4.66-4.32 4.66" fill="#484848"/><path d="M462.995 14.56c0 .978-.734 1.77-1.64 1.77-.908 0-1.64-.792-1.64-1.77 0-.98.732-1.773 1.64-1.773.906 0 1.64.793 1.64 1.772" fill="#1b1b1b"/><path d="M481.915 14.56c0 1.444-1.083 2.61-2.422 2.61-1.336 0-2.422-1.166-2.422-2.61 0-1.443 1.087-2.615 2.423-2.615 1.34 0 2.422 1.172 2.422 2.614" fill="#95c300"/><path d="M229.41 39.44c0 2.504-1.878 4.536-4.2 4.536-2.318 0-4.2-2.032-4.2-4.535 0-2.502 1.882-4.532 4.2-4.532 2.322 0 4.2 2.03 4.2 4.533" fill="#f3361e"/><path d="M242.89 39.44c0 2.504-1.88 4.536-4.2 4.536-2.32 0-4.2-2.032-4.2-4.535 0-2.502 1.88-4.532 4.2-4.532 2.32 0 4.2 2.03 4.2 4.533" fill="#f3ac1e"/><path d="M256.367 39.44c0 2.504-1.878 4.536-4.2 4.536-2.32 0-4.2-2.032-4.2-4.535 0-2.502 1.88-4.532 4.2-4.532 2.322 0 4.2 2.03 4.2 4.533" fill="#103754"/><g fill="#144f72"><path d="M245.438 72.872h7.39v-7.975h-7.39v7.975zM245.438 87.295h7.39V79.32h-7.39v7.975zM245.438 101.694h7.39V93.72h-7.39v7.974zM245.438 116.117h7.39v-7.972h-7.39v7.972zM245.438 130.54h7.39v-7.972h-7.39v7.973zM245.438 144.964h7.39v-7.976h-7.39v7.976zM245.438 159.387h7.39v-7.975h-7.39v7.975zM245.438 173.81h7.39v-7.974h-7.39v7.975zM245.438 188.234h7.39v-7.975h-7.39v7.974zM245.438 202.657h7.39v-7.973h-7.39v7.973zM245.438 217.08h7.39v-7.97h-7.39v7.97zM245.438 231.48h7.39v-7.974h-7.39v7.973zM245.438 245.903h7.39v-7.975h-7.39v7.975zM245.438 260.326h7.39v-7.975h-7.39v7.976zM245.438 274.75h7.39v-7.976h-7.39v7.975zM245.438 289.173h7.39V281.2h-7.39v7.973zM245.438 303.596h7.39v-7.972h-7.39v7.972zM245.438 318.02h7.39v-7.978h-7.39v7.977zM245.438 332.443h7.39v-7.975h-7.39v7.975z"/></g><rect ry="1.277" rx="1.481" height="427.843" width="704.083" y="-5.118" x="120.85" fill="none"/></g></svg>